<?xml version="1.0" encoding="UTF-8"?>
<svg width="52px" height="38px" viewBox="0 0 52 38" version="1.1" xmlns="http://www.w3.org/2000/svg" xmlns:xlink="http://www.w3.org/1999/xlink">
    <!-- Generator: Sketch 55.2 (78181) - https://sketchapp.com -->
    <title>Group 14</title>
    <desc>Created with Sketch.</desc>
    <g id="Page-1" stroke="none" stroke-width="1" fill="none" fill-rule="evenodd">
        <g id="single-entry" transform="translate(-171.000000, -2614.000000)" fill="#FF5C33">
            <g id="Group-14" transform="translate(171.000000, 2614.000000)">
                <g id="Group-6">
                    <path d="M26.0025617,20.1515152 C24.9403362,20.1515152 0,20.2264268 0,26.820079 C0,31.9965229 15.2098924,33.1480112 21.6960757,33.4038975 L19.5644881,35.5333784 C19.0021471,36.093516 18.9997417,37.0061462 19.5572778,37.5711357 L19.5572778,37.5735462 C20.1148139,38.1385111 21.025605,38.1433445 21.5855712,37.5807902 L25.67095,33.5004544 C26.233291,32.9403169 26.2813575,31.9842354 25.7718817,31.3757946 C24.7385096,30.14445 23.0707306,28.1646688 22.0325599,26.9333242 C21.5206848,26.3273125 20.6146801,26.2500336 20.0114644,26.7667323 C19.4082672,27.2834125 19.3337466,28.1912278 19.8456463,28.7972581 L21.2875808,30.506628 C12.1387588,30.1323974 6.43143428,28.7513963 4.07394076,27.6287106 C3.35777212,27.288283 3.35057414,26.3442727 4.06673047,25.9990116 C6.90728869,24.6445448 14.5062679,23.0317194 26.0002793,23.0317194 C37.4973667,23.0317194 45.093393,24.6445448 47.9338281,25.9990116 C48.6499968,26.3418559 48.6427373,27.2882706 47.9242185,27.6287106 C45.4633693,28.7996686 39.3641546,30.2555627 29.5041471,30.5525515 C28.7134763,30.5766939 28.0814687,31.2334316 28.0958647,32.0301404 C28.1102852,32.8245005 28.7639237,33.459457 29.5545945,33.4328794 C35.5216616,33.2373118 52,32.2087664 52,26.820011 C52.0048048,20.2263032 27.0648304,20.1515152 26.0023587,20.1515152 L26.0025617,20.1515152 Z" id="Fill-1"></path>
                    <path d="M4.04444444,17.4834137 L4.04444444,14.6699582 L4.37150961,14.6699582 C5.92817437,15.5345504 7.38644195,15.966816 8.74631235,15.966816 C9.82093796,15.966816 10.6595488,15.7518693 11.2669295,15.3171948 C11.8718801,14.884911 12.1743492,14.2519996 12.1743492,13.4208515 C12.1743492,12.7616924 11.9382715,12.2505552 11.4661161,11.8899467 C10.9939607,11.5293382 10.0152142,11.3501895 8.5348497,11.3501895 L7.63725088,11.3501895 L7.63478938,9.10039114 L8.48076588,9.10039114 C10.7653053,9.10039114 11.9088027,8.42447948 11.9088027,7.07033281 C11.9088027,6.50191281 11.6628916,6.07202566 11.1734994,5.77824407 C10.6841324,5.48448082 9.98574536,5.33640389 9.08323612,5.33640389 C7.86595664,5.33640389 6.43721451,5.75913757 4.79940198,6.60458658 L4.49446516,6.60458658 L4.49446516,3.81980609 C6.22079108,3.19170655 7.8856109,2.87878788 9.48162193,2.87878788 C11.3726986,2.87878788 12.8014407,3.21553923 13.7703665,3.88901749 C14.7392922,4.56254465 15.2237237,5.45813524 15.2237237,6.5734659 C15.2237237,7.40461408 14.9556779,8.13304569 14.4171564,8.75876075 C13.8786034,9.38209131 13.1629858,9.80004989 12.265387,10.0126365 L12.265387,10.1511571 C13.2933007,10.3302813 14.1048413,10.7171865 14.7024012,11.3142387 C15.2999736,11.9113154 15.6,12.6827535 15.6,13.6285407 C15.6,15.0806349 15.0294789,16.2437166 13.8859501,17.1154622 C12.7424528,17.9872079 11.1956718,18.4242424 9.24554425,18.4242424 C7.35446759,18.4242424 5.62077605,18.1089882 4.04444444,17.4832242 L4.04444444,17.4834137 Z" id="Fill-2"></path>
                    <path d="M28.0732071,3.12723362 L28.0732071,5.68311403 L27.7742553,5.68311403 C27.1269671,5.37975573 26.3412905,5.22688109 25.4271556,5.22688109 C22.6328237,5.22688109 21.076334,6.64097145 20.7551566,9.46676732 C22.1090604,8.68808509 23.3295725,8.29868282 24.4240929,8.29868282 C25.9361187,8.29868282 27.1516974,8.71908806 28.0781658,9.5575137 C29.0046342,10.3959393 29.4666667,11.5735632 29.4666667,13.0855545 C29.4666667,14.6572892 28.9107666,15.9400296 27.8014523,16.9337148 C26.6896649,17.9297847 25.2641002,18.4242424 23.5222916,18.4242424 C21.5210363,18.4242424 19.9892769,17.8270774 18.9268868,16.63512 C17.8644967,15.4431871 17.3333333,13.7209626 17.3333333,11.4684466 C17.3333333,8.70000931 18.0350155,6.57645836 19.4383166,5.0978549 C20.8416177,3.61925145 22.8799368,2.87878788 25.5507438,2.87878788 C26.4945424,2.87878788 27.3370164,2.96239196 28.0732956,3.12720916 L28.0732071,3.12723362 Z M20.7378517,11.4901242 C20.730439,11.7074936 20.7279659,11.8842534 20.7279659,12.0156338 C20.7279659,14.8032111 21.6643644,16.1957767 23.5370981,16.1957767 C24.2881776,16.1957767 24.8959353,15.9377977 25.3555011,15.4218641 C25.8175146,14.9059122 26.0473164,14.184558 26.0473164,13.25294 C26.0473164,11.4351383 25.0664541,10.527491 23.1072593,10.527491 C22.3389129,10.529882 21.5532363,10.7138085 20.7477628,11.0840525 L20.7378517,11.4901242 Z" id="Fill-3"></path>
                    <path d="M37.267896,18.4242424 C35.1771355,18.4242424 33.6429192,17.8079131 32.6652472,16.5777615 C31.6875751,15.345225 31.2,13.369779 31.2,10.6467149 C31.2,7.95233005 31.690059,5.98403858 32.6701645,4.74196276 C33.6502952,3.49988694 35.1820528,2.87878788 37.2654373,2.87878788 C39.3488218,2.87878788 40.8805794,3.49744094 41.8631688,4.73719307 C42.8432995,5.9744992 43.3333333,7.94279068 43.3333333,10.6371755 C43.3333333,13.3793795 42.845733,15.3619801 41.8730035,16.587362 C40.9002489,17.810359 39.3660326,18.4242424 37.267896,18.4242424 L37.267896,18.4242424 Z M37.267896,5.18639989 C36.3148738,5.18639989 35.6326847,5.62119981 35.2214547,6.49066511 C34.8101995,7.36015487 34.6033363,8.74795079 34.6033363,10.6564989 C34.6033363,12.5578924 34.8151232,13.9456883 35.2362257,14.8175629 C35.6597995,15.6894375 36.3370209,16.1265367 37.2703736,16.1265367 C38.2037263,16.1265367 38.880935,15.6846312 39.3045215,14.798423 C39.7280953,13.9122394 39.9374109,12.5268283 39.9374109,10.637359 C39.9374109,8.73596542 39.730554,7.35055435 39.3192925,6.48583427 C38.9031073,5.61872935 38.220956,5.18639989 37.2679338,5.18639989 L37.267896,5.18639989 Z" id="Fill-4"></path>
                    <path d="M49.6888889,3.16574098 C49.6888889,7.38919745 43.3333333,7.38919745 43.3333333,3.16574098 C43.3333333,-1.05524699 49.6888889,-1.05524699 49.6888889,3.16574098" id="Fill-5"></path>
                </g>
            </g>
        </g>
    </g>
</svg>