<?xml version="1.0" encoding="UTF-8"?>
<svg width="93px" height="57px" viewBox="0 0 93 57" version="1.1" xmlns="http://www.w3.org/2000/svg" xmlns:xlink="http://www.w3.org/1999/xlink">
    <!-- Generator: Sketch 46.2 (44496) - http://www.bohemiancoding.com/sketch -->
    <title>handshake</title>
    <desc>Created with Sketch.</desc>
    <defs></defs>
    <g id="Page-1" stroke="none" stroke-width="1" fill="none" fill-rule="evenodd">
        <path d="M91.9425,23.7187 L77.5635,0.9417 C77.34866,0.60576 77.00881,0.36358 76.62209,0.27764 C76.23147,0.1917 75.82521,0.26202 75.48929,0.48076 L65.40329,6.94166 C64.70798,7.38697 64.50485,8.30886 64.94235,9.00416 L65.80173,10.36746 L63.71583,11.2073 C63.51271,11.28933 63.29395,11.30886 63.08302,11.26199 L56.64162,9.91039 C52.93072,9.12914 49.15332,9.08617 45.42262,9.77758 L39.36402,10.90258 C37.70382,11.21117 36.18822,11.98458 34.96952,13.12138 L29.33282,12.22685 C29.21563,12.20732 29.10235,12.17216 28.99688,12.11747 L26.43048,10.78547 L27.15314,9.63707 C27.36408,9.30113 27.43439,8.89488 27.34845,8.50427 C27.26252,8.11755 27.02423,7.77771 26.68439,7.56677 L16.67239,1.24647 C15.97317,0.80506 15.04739,1.01209 14.60209,1.71522 L0.231093046,24.49222 C0.0201530457,24.82816 -0.0501569543,25.23441 0.0357830457,25.62502 C0.121720046,26.01174 0.360003046,26.35158 0.699843046,26.56252 L10.71184,32.88282 C10.96184,33.03907 11.23528,33.11329 11.51262,33.11329 C12.00871,33.11329 12.497,32.8672 12.78212,32.41407 L13.46571,31.33207 L18.15711,37.51957 L16.56731,39.79297 C15.05561,41.95317 15.57512,44.94917 17.71961,46.47657 L17.80555,46.53516 C18.61024,47.10938 19.55165,47.41016 20.51645,47.42578 C20.51645,48.96488 21.2352,50.48438 22.57895,51.42968 C23.41098,52.01562 24.37585,52.3203 25.37195,52.3203 C25.66492,52.3203 25.95789,52.29296 26.25086,52.24218 C26.5243,52.1914 26.78211,52.10937 27.03602,52.01952 C27.45008,53.10152 28.21962,54.01952 29.25482,54.57422 C29.9892,54.96875 30.78212,55.16016 31.56732,55.16016 C32.30951,55.16016 33.04002,54.98438 33.70402,54.66016 C34.18449,55.55469 34.95012,56.26176 35.91102,56.66016 C36.46571,56.89063 37.04382,57 37.61412,57 C38.95002,57 40.23522,56.38281 41.09462,55.2773 L48.37192,56.3906 C48.86411,56.46481 49.3563,56.50388 49.84462,56.50388 C52.35632,56.50388 54.75082,55.5156 56.55162,53.73048 C56.7235,53.7461 56.89537,53.76173 57.06724,53.76173 C58.85634,53.76173 60.58674,52.87892 61.62974,51.28123 C62.18443,50.51561 62.46177,49.59373 62.45005,48.65623 C62.47349,48.65623 62.49302,48.66013 62.51646,48.66013 C64.39146,48.66013 66.23126,47.74607 67.31726,46.09373 C67.75476,45.42576 67.98132,44.67183 68.02429,43.90233 C68.14538,43.91015 68.26648,43.92577 68.39148,43.92577 C70.11808,43.92577 71.80558,43.08202 72.82898,41.53517 C73.61804,40.34377 73.88758,38.91797 73.5946,37.51957 C73.55554,37.33207 73.48132,37.15629 73.42273,36.9766 L79.17273,31.543 L79.32507,31.78519 C79.53991,32.12113 79.87976,32.36331 80.26648,32.44925 C80.37585,32.47269 80.48523,32.48441 80.5907,32.48441 C80.87586,32.48441 81.15711,32.40238 81.39929,32.24613 L91.48529,25.78523 C92.1767,25.33601 92.38373,24.41413 91.94232,23.71883 L91.9425,23.7187 Z M11.0445,29.5468 L3.56790105,24.828 L16.3449,4.59 L23.8215,9.3088 L11.0445,29.5468 Z M19.4586,44.0348 C18.65001,43.45668 18.4547,42.3278 19.0211,41.5114 L21.8766,37.4255 C22.22426,36.9255 22.78285,36.65597 23.361,36.65597 C23.69694,36.65597 24.04069,36.74972 24.35319,36.94113 C24.77897,37.20675 25.07194,37.62082 25.17741,38.10913 C25.27116,38.55444 25.19304,39.00366 24.96647,39.39433 L21.95867,43.79663 C21.68914,44.11304 21.32586,44.32788 20.91177,44.4021 C20.42739,44.48804 19.93911,44.37866 19.54067,44.09351 L19.4586,44.0348 Z M25.7125,49.2887 C25.2125,49.37855 24.7125,49.26917 24.2945,48.97229 C23.46247,48.38635 23.2515,47.22619 23.82575,46.38639 L24.43903,45.48795 C24.47809,45.43326 24.52887,45.3903 24.56794,45.33561 C25.45466,44.03871 26.50154,42.49971 27.38824,41.19111 C27.41168,41.15595 27.4234,41.11689 27.44683,41.08173 L29.84523,37.57003 C30.20461,37.04269 30.79836,36.75753 31.39993,36.75753 C31.75149,36.75753 32.10305,36.85519 32.41553,37.05831 C32.84131,37.33565 33.13037,37.76143 33.22803,38.25751 C33.32959,38.75751 33.22413,39.26141 32.93897,39.67941 L32.11085,40.89421 C32.09523,40.91765 32.07179,40.93718 32.05617,40.96062 L27.54447,47.51922 C27.46244,47.63641 27.41166,47.76922 27.34135,47.89422 L26.92338,48.5036 C26.64213,48.92157 26.21244,49.19891 25.71248,49.28876 L25.7125,49.2887 Z M30.6734,51.9293 C30.19684,51.67539 29.86871,51.24571 29.73981,50.7184 C29.64606,50.32778 29.67731,49.93715 29.82575,49.5778 L34.59135,42.5934 C34.88823,42.19887 35.31401,41.94106 35.80615,41.87074 C35.8999,41.85902 35.98974,41.85121 36.07959,41.85121 C36.50537,41.85121 36.91162,41.99574 37.25149,42.26918 C38.0054,42.87856 38.16555,43.98798 37.61868,44.78478 L36.26318,46.75748 C36.23193,46.80045 36.18896,46.83561 36.15771,46.87857 L33.96241,50.03477 C33.88819,50.14024 33.84522,50.25743 33.78272,50.37071 L33.11085,51.34727 C32.56397,52.13243 31.51705,52.38637 30.67335,51.9293 L30.6734,51.9293 Z M37.0484,53.8824 C36.64606,53.71834 36.34527,53.3824 36.22027,52.96443 C36.13043,52.65974 36.14605,52.33552 36.25933,52.04646 L38.72023,48.46446 C38.94679,48.20665 39.24757,48.03868 39.59132,47.9918 C39.65773,47.98399 39.72413,47.97618 39.79054,47.97618 C40.11866,47.97618 40.43507,48.08946 40.69679,48.3043 C41.2671,48.77305 41.38429,49.6168 40.96241,50.2262 L38.76321,53.3785 C38.3804,53.93319 37.67341,54.14022 37.04841,53.88241 L37.0484,53.8824 Z M71.6934,34.4724 C71.55278,34.36302 71.42778,34.23802 71.27543,34.14037 L47.67343,18.84337 C46.43513,18.04259 44.85313,17.96837 43.54843,18.65196 L32.57543,24.38636 C32.20434,24.58167 31.7434,24.54261 31.40743,24.28871 C31.17306,24.11293 31.02462,23.85512 30.98165,23.56215 C30.94259,23.26918 31.02071,22.98403 31.2004,22.74965 L36.3645,16.03485 C37.2395,14.89425 38.5012,14.12075 39.9153,13.85905 L45.9739,12.73405 C49.3177,12.11296 52.7005,12.15202 56.0289,12.85124 L62.4703,14.20284 C63.26718,14.37081 64.0875,14.29659 64.8414,13.9919 L67.4312,12.9489 L77.5362,28.9529 L71.6934,34.4724 Z M81.0528,28.9021 L68.2758,8.6641 L75.8344,3.8203 L88.6114,24.0583 L81.0528,28.9021 Z" id="handshake" fill="#000000"></path>
    </g>
</svg>