<?xml version="1.0" encoding="UTF-8"?>
<svg width="81px" height="83px" viewBox="0 0 81 83" version="1.1" xmlns="http://www.w3.org/2000/svg" xmlns:xlink="http://www.w3.org/1999/xlink">
    <!-- Generator: Sketch 46.2 (44496) - http://www.bohemiancoding.com/sketch -->
    <title>parking</title>
    <desc>Created with Sketch.</desc>
    <defs></defs>
    <g id="Page-1" stroke="none" stroke-width="1" fill="none" fill-rule="evenodd">
        <g id="parking" fill="#000000">
            <path d="M24.336,26.383 C27.7266,25.81659 35.172,25.3322 40.82,25.3322 C47.7653,25.3322 52.851,26.9455 56.082,29.8556 C59.0703,32.4415 61.8476,38.3947 61.8476,43.2426 C61.8476,48.1684 60.3945,53.0473 57.6484,55.8716 C53.9336,59.8286 46.8784,62.8482 40.0114,62.8482 C37.9098,62.8482 35.9723,62.76617 34.3591,62.36382 L34.3591,82.16882 L24.3361,82.16882 L24.336,26.383 Z M34.359,54.629 C35.8942,55.03134 37.8317,55.19541 40.1715,55.19541 C48.652,55.19541 53.8195,51.07821 53.8195,43.56641 C53.8195,36.37891 48.7336,33.90621 40.9795,33.90621 C37.9092,33.90621 35.5693,34.1484 34.3584,34.47262 L34.359,54.629 Z" id="Fill-1"></path>
            <polygon id="Fill-2" points="80.5 24.5 40.168 11.5 0.168 24.5 0.168 13.832 39.832 0.832 80.5 13.832"></polygon>
        </g>
    </g>
</svg>