<?xml version="1.0" encoding="UTF-8"?>
<svg width="20px" height="20px" viewBox="0 0 20 20" version="1.1" xmlns="http://www.w3.org/2000/svg" xmlns:xlink="http://www.w3.org/1999/xlink">
    <!-- Generator: Sketch 48.2 (47327) - http://www.bohemiancoding.com/sketch -->
    <title>ic_directions_black_24px</title>
    <desc>Created with Sketch.</desc>
    <defs></defs>
    <g id="Page-1" stroke="none" stroke-width="1" fill="none" fill-rule="evenodd">
        <g id="ic_directions_black_24px" transform="translate(0.000000, -1.000000)" fill="#000000" fill-rule="nonzero">
            <path d="M19.71,10.29 L10.71,1.29 C10.32,0.9 9.69,0.9 9.3,1.29 L0.3,10.29 C-0.09,10.68 -0.09,11.31 0.3,11.7 L9.3,20.7 C9.69,21.09 10.32,21.09 10.71,20.7 L19.71,11.7 C20.1,11.32 20.1,10.69 19.71,10.29 Z M12,13.5 L12,11 L8,11 L8,14 L6,14 L6,10 C6,9.45 6.45,9 7,9 L12,9 L12,6.5 L15.5,10 L12,13.5 Z" id="Shape"></path>
        </g>
    </g>
</svg>