<?xml version="1.0" encoding="UTF-8"?>
<svg width="96px" height="88px" viewBox="0 0 96 88" version="1.1" xmlns="http://www.w3.org/2000/svg" xmlns:xlink="http://www.w3.org/1999/xlink">
    <!-- Generator: Sketch 46.2 (44496) - http://www.bohemiancoding.com/sketch -->
    <title>Page 1</title>
    <desc>Created with Sketch.</desc>
    <defs></defs>
    <g id="Page-1" stroke="none" stroke-width="1" fill="none" fill-rule="evenodd">
        <g fill="#005EA3">
            <path d="M94.801,14.602 C94.19944,13.80122 93.301,13.4028 92.301,13.4028 L24.10201,13.4028 L21.8012,2.9028 C21.50042,1.4028 20.1996,0.4028 18.6996,0.4028 L3.801605,0.4028 C2.000805,0.4028 0.602405,1.8012 0.602405,3.602 C0.602405,5.4028 2.000805,6.8012 3.801605,6.8012 L16.1996,6.8012 L29.1996,66.1992 C29.50038,67.6992 30.80121,68.6992 32.3012,68.6992 L82.8012,68.6992 C84.602,68.6992 86.0004,67.3008 86.0004,65.5 C86.0004,63.6992 84.602,62.3008 82.8012,62.3008 L34.90321,62.3008 L33.30161,55 L84.40361,55 C85.90361,55 87.20441,54 87.50521,52.5 L95.50521,17.301 C95.60286,16.39866 95.39974,15.3987 94.80209,14.6018 L94.801,14.602 Z" id="Fill-1"></path>
            <path d="M83.801,80 C83.801,84.1992 80.3987,87.6016 76.1994,87.6016 C72.0041,87.6016 68.6017,84.1993 68.6017,80 C68.6017,75.8007 72.004,72.3984 76.1994,72.3984 C80.3986,72.3984 83.801,75.8007 83.801,80" id="Fill-2"></path>
            <path d="M46.699,80 C46.699,84.1992 43.2967,87.6016 39.1013,87.6016 C34.9021,87.6016 31.4997,84.1993 31.4997,80 C31.4997,75.8007 34.902,72.3984 39.1013,72.3984 C43.2966,72.3984 46.699,75.8007 46.699,80" id="Fill-3"></path>
        </g>
    </g>
</svg>