<?xml version="1.0" encoding="UTF-8"?>
<svg width="48px" height="90px" viewBox="0 0 48 90" version="1.1" xmlns="http://www.w3.org/2000/svg" xmlns:xlink="http://www.w3.org/1999/xlink">
    <!-- Generator: Sketch 46.2 (44496) - http://www.bohemiancoding.com/sketch -->
    <title>diner</title>
    <desc>Created with Sketch.</desc>
    <defs></defs>
    <g id="Page-1" stroke="none" stroke-width="1" fill="none" fill-rule="evenodd">
        <g id="diner" transform="translate(0.000000, -1.000000)" fill="#000000">
            <path d="M21.199,18.699 L21.199,18.49978 L21.199,2.49978 C21.199,1.699 20.59744,0.99978 19.8006,0.99978 C18.99982,0.89822 18.199,1.60134 18.199,2.49978 L18.199,16.30078 C18.199,17.10156 17.59744,17.80078 16.8006,17.80078 C15.99982,17.90234 15.199,17.19922 15.199,16.30078 L15.199,2.49978 C15.199,1.699 14.59744,0.99978 13.8006,0.99978 C13.19904,0.99978 12.4998,1.60134 12.4998,2.49978 L12.4998,16.30078 C12.4998,17.10156 11.89824,17.80078 11.1014,17.80078 C10.30062,17.90234 9.4998,17.19922 9.4998,16.30078 L9.4998,2.49978 C9.4998,1.699 8.89824,0.99978 8.1014,0.99978 C7.30062,0.89822 6.4998,1.60134 6.4998,2.49978 L6.4998,16.30078 C6.4998,17.10156 5.80058,17.80078 4.8982,17.80078 C4.09742,17.80078 3.4998,17.10156 3.4998,16.30078 L3.4998,2.49978 C3.4998,1.699 2.80058,0.99978 1.9998,0.99978 C1.19902,0.99978 0.4998,1.699 0.4998,2.49978 L0.4998,18.49978 L0.4998,18.699 L0.4998,32.5 C0.4998,35.5 2.4998,38.1016 5.3006,39 L5.3006,85.602 C5.3006,88.602 7.699,91.0004 10.699,91.0004 C13.699,91.0004 16.0974,88.602 16.0974,85.602 L16.10131,39 C18.90211,38.19922 20.90211,35.6016 20.90211,32.5 L21.199,18.699 Z" id="Fill-1"></path>
            <path d="M47.5,60.199 L47.5,6.398 C47.5,3.398 45.1016,0.9996 42.1016,0.9996 L36.7032,0.9996 C33.7032,0.9996 31.3048,3.398 31.3048,6.398 L31.3048,46.097 C31.3048,49.097 33.7032,51.4954 36.7032,51.4954 L36.7032,85.5974 C36.7032,88.597401 39.1016,90.995801 42.1016,90.995801 C45.1016,90.995801 47.5,88.597401 47.5,85.5974 L47.5,60.5974 L47.5,60.19896 L47.5,60.199 Z" id="Fill-2"></path>
        </g>
    </g>
</svg>