<?xml version="1.0" encoding="UTF-8"?>
<svg width="259px" height="259px" viewBox="0 0 259 259" version="1.1" xmlns="http://www.w3.org/2000/svg" xmlns:xlink="http://www.w3.org/1999/xlink">
    <!-- Generator: Sketch 47.1 (45422) - http://www.bohemiancoding.com/sketch -->
    <title>facebook</title>
    <desc>Created with Sketch.</desc>
    <defs></defs>
    <g id="Page-1" stroke="none" stroke-width="1" fill="none" fill-rule="evenodd">
        <g id="facebook" fill-rule="nonzero" fill="#3C5A99">
            <path d="M244.082,258.307 L14.812,258.307 C6.954,258.307 0.588,251.937 0.588,244.082 L0.588,14.812 C0.588,6.955 6.955,0.588 14.812,0.588 L244.082,0.588 C251.937,0.588 258.305,6.955 258.305,14.812 L258.305,244.082 C258.305,251.938 251.936,258.307 244.082,258.307 Z M178.409,258.307 L178.409,158.504 L211.908,158.504 L216.924,119.609 L178.409,119.609 L178.409,94.777 C178.409,83.516 181.536,75.842 197.684,75.842 L218.28,75.833 L218.28,41.045 C214.718,40.571 202.492,39.512 188.268,39.512 C158.573,39.512 138.243,57.638 138.243,90.925 L138.243,119.609 L104.658,119.609 L104.658,158.504 L138.243,158.504 L138.243,258.307 L178.409,258.307 Z" id="Combined-Shape"></path>
        </g>
    </g>
</svg>