<?xml version="1.0" encoding="UTF-8"?>
<svg width="101px" height="94px" viewBox="0 0 101 94" version="1.1" xmlns="http://www.w3.org/2000/svg" xmlns:xlink="http://www.w3.org/1999/xlink">
    <!-- Generator: Sketch 48.2 (47327) - http://www.bohemiancoding.com/sketch -->
    <title>Group 2</title>
    <desc>Created with Sketch.</desc>
    <defs>
        <path d="M43.0833333,5.23018979 L32.6380533,5.23018979 L30.0261067,0 L16.9713867,0 L14.35944,5.23018979 L3.91666667,5.23018979 C1.69638667,5.23018979 0,6.92943653 0,9.15345986 L0,30.0767299 C0,32.1683037 1.69638667,34 3.91666667,34 L43.0833333,34 C45.3036133,34 47,32.1683037 47,30.0767299 L47,9.15345986 C47,6.93188465 45.3036133,5.23018979 43.0833333,5.23018979 Z M23.5,28.7698102 C18.4083333,28.7698102 14.3619467,24.7166014 14.3619467,19.6163503 C14.3619467,14.5160993 18.4083333,10.4628905 23.5,10.4628905 C28.5916667,10.4628905 32.6380533,14.5160993 32.6380533,19.6163503 C32.6380533,24.7166014 28.5916667,28.7698102 23.5,28.7698102 Z" id="path-1"></path>
    </defs>
    <g id="Page-1" stroke="none" stroke-width="1" fill="none" fill-rule="evenodd">
        <g id="Group-2">
            <path d="M50.4996356,37 C21.7337988,37 0,47.3024448 0,60.9978196 C0,68.9565704 7.02602505,75.8650415 19.7815561,80.3038164 C21.9930714,81.0884739 24.4690522,79.9114877 25.2468308,77.6950742 C25.3790116,77.4352174 25.3790116,77.0428886 25.5061164,76.7830318 C25.765402,74.8264752 24.5960789,72.8699185 22.6438493,72.2177329 C14.1840746,69.2166359 8.58630684,64.7838611 8.58630684,60.9980544 C8.58630684,54.608723 24.4633516,45.605171 50.3671815,45.605171 C76.264504,45.605171 92.1480562,54.6032446 92.1480562,60.9980544 C92.1480562,65.6958774 84.2068007,71.1731926 70.9322429,74.3013354 L77.5719947,68.5641895 C79.3920176,66.9999876 79.5242504,64.2587213 77.963461,62.4346888 C76.4026976,60.6106562 73.6674573,60.4781321 71.8474344,62.04236 L53.6263813,77.8278592 C52.9756294,78.3475728 52.5841631,78.9997583 52.3248775,79.7844158 C52.0655919,80.4366014 52.0655919,81.0887869 52.1926968,81.7409725 C52.4519824,83.1778677 53.4942006,84.4822388 54.9279371,85.0019003 L77.3125008,93.7401432 C77.831072,94 78.3547191,94 78.8732642,94 C80.5662603,94 82.2592565,92.9554857 82.9100084,91.2587337 C83.8200458,89.0423463 82.6507228,86.5609107 80.4392336,85.6488944 L72.7624436,82.6477974 C90.1960869,78.7346841 100.998568,70.7810203 100.998568,60.9978457 C100.999284,47.301923 79.2654724,37 50.4996356,37 Z" id="Page-1" fill="#005EA3"></path>
            <g id="Page-1" transform="translate(27.000000, 20.000000)">
                <path d="M28,20 C28,22.209984 26.209984,24 24,24 C21.790016,24 20,22.209984 20,20 C20,17.790016 21.790016,16 24,16 C26.209984,16 28,17.790016 28,20" id="Fill-1" fill="#005EA3"></path>
                <g id="Fill-2">
                    <use fill="#005EA3" fill-rule="evenodd" xlink:href="#path-1"></use>
                    <path stroke="#FFFFFF" stroke-width="3" d="M13.4318897,3.73018979 L16.0438364,-1.5 L30.953657,-1.5 L33.5656036,3.73018979 L43.0833333,3.73018979 C46.1319008,3.73018979 48.5,6.10331439 48.5,9.15345986 L48.5,30.0767299 C48.5,33.0346746 46.0954676,35.5 43.0833333,35.5 L3.91666667,35.5 C0.904532359,35.5 -1.5,33.0346746 -1.5,30.0767299 L-1.5,9.15345986 C-1.5,6.10157452 0.867393365,3.73018979 3.91666667,3.73018979 L13.4318897,3.73018979 Z M23.5,27.2698102 C27.7626734,27.2698102 31.1380533,23.8887394 31.1380533,19.6163503 C31.1380533,15.3439613 27.7626734,11.9628905 23.5,11.9628905 C19.2373266,11.9628905 15.8619467,15.3439613 15.8619467,19.6163503 C15.8619467,23.8887394 19.2373266,27.2698102 23.5,27.2698102 Z"></path>
                    <use stroke="#FFFFFF" stroke-width="1" xlink:href="#path-1"></use>
                </g>
                <path d="M23.5,26 C19.8782403,26 17,23.1217597 17,19.5 C17,15.8782403 19.8782403,13 23.5,13 C27.1217597,13 30,15.8782403 30,19.5 C30,23.1217597 27.1217597,26 23.5,26 Z" id="Path" fill="#005EA8"></path>
            </g>
            <path d="M38.954,10.857 C38.954,13.986 36.602,15.456 33.977,15.456 C31.499,15.456 29,14.133 29,10.773 L32.444,10.773 C32.444,11.823 33.116,12.348 33.977,12.348 C34.88,12.348 35.51,11.823 35.51,10.752 C35.51,9.849 34.838,9.177 33.914,9.177 L33.431,9.177 L33.431,6.195 L33.914,6.195 C34.943,6.195 35.342,5.46 35.342,4.788 C35.342,3.843 34.691,3.36 33.977,3.36 C33.263,3.36 32.612,3.864 32.612,4.767 L29.168,4.767 C29.168,1.953 31.31,0.252 33.977,0.252 C36.749,0.252 38.786,2.1 38.786,4.683 C38.786,6.321 37.988,7.119 37.232,7.602 C38.051,8.169 38.954,9.072 38.954,10.857 Z M50.546,10.647 C50.546,13.818 48.257,15.456 45.569,15.456 C42.881,15.456 40.592,13.818 40.592,10.647 C40.592,9.114 41.327,7.707 42.02,6.3 L44.897,0.378 L48.677,0.378 L45.716,6.237 C46.01,6.132 46.325,6.132 46.556,6.132 C48.383,6.132 50.546,7.686 50.546,10.647 Z M47.102,10.647 C47.102,9.534 46.409,8.946 45.569,8.946 C44.729,8.946 44.036,9.534 44.036,10.647 C44.036,11.76 44.729,12.348 45.569,12.348 C46.409,12.348 47.102,11.76 47.102,10.647 Z M62.117,10.794 C62.117,13.881 59.786,15.456 57.308,15.456 C54.83,15.456 52.499,13.881 52.499,10.794 L52.499,4.914 C52.499,1.827 54.83,0.252 57.308,0.252 C59.786,0.252 62.117,1.827 62.117,4.914 L62.117,10.794 Z M58.673,10.815 L58.673,4.914 C58.673,3.864 58.043,3.36 57.308,3.36 C56.573,3.36 55.943,3.864 55.943,4.914 L55.943,10.815 C55.943,11.865 56.573,12.348 57.308,12.348 C58.043,12.348 58.673,11.865 58.673,10.815 Z M72.365,4.116 C72.365,6.384 70.517,8.232 68.249,8.232 C65.981,8.232 64.133,6.384 64.133,4.116 C64.133,1.848 65.981,0 68.249,0 C70.517,0 72.365,1.848 72.365,4.116 Z M69.614,4.116 C69.614,3.36 69.005,2.751 68.249,2.751 C67.493,2.751 66.884,3.36 66.884,4.116 C66.884,4.872 67.493,5.481 68.249,5.481 C69.005,5.481 69.614,4.872 69.614,4.116 Z" id="360°" fill="#005EA3"></path>
        </g>
    </g>
</svg>