<?xml version="1.0" encoding="UTF-8"?>
<svg width="95px" height="99px" viewBox="0 0 95 99" version="1.1" xmlns="http://www.w3.org/2000/svg" xmlns:xlink="http://www.w3.org/1999/xlink">
    <!-- Generator: Sketch 46.2 (44496) - http://www.bohemiancoding.com/sketch -->
    <title>calendar</title>
    <desc>Created with Sketch.</desc>
    <defs></defs>
    <g id="Page-1" stroke="none" stroke-width="1" fill="none" fill-rule="evenodd">
        <path d="M86.191808,9.4415972 L78.094108,9.4415972 L78.094108,18.6759972 C78.094108,22.6212972 74.918308,25.8361972 71.023808,25.8361972 C67.129308,25.8361972 63.953508,22.6173972 63.953508,18.6759972 L63.953508,9.4415972 L30.644508,9.4415972 L30.644508,18.6759972 C30.644508,22.6212972 27.468708,25.8361972 23.574208,25.8361972 C19.679708,25.8361972 16.503908,22.6173972 16.503908,18.6759972 L16.499998,9.4415972 L8.300798,9.4415972 C3.6875,9.4415972 0,13.1759972 0,17.8477972 L0,90.5937992 C0,95.2618002 3.6875,99 8.300798,99 L86.191798,99 C90.805098,99 94.492598,95.2656002 94.492598,90.5937992 L94.492598,17.8437972 C94.492598,13.1757972 90.805098,9.4414972 86.191798,9.4414972 L86.191808,9.4415972 Z M89.676208,90.5935972 C89.676208,92.5662972 88.137108,94.1208972 86.191808,94.1208972 L8.300808,94.1208972 C6.355507,94.1208972 4.816407,92.5622972 4.816407,90.5935972 L4.816407,34.5545972 L89.777408,34.5545972 L89.777408,90.5935972 L89.676208,90.5935972 Z M23.574208,22.1015972 C25.519508,22.1015972 27.058608,20.5429972 27.058608,18.5742972 L27.058608,3.8362972 C27.058608,1.8635972 25.519508,0.3089972 23.574208,0.3089972 C21.625008,0.3089972 20.089808,1.8675972 20.089808,3.8362972 L20.089808,18.5702972 C20.089808,20.5429972 21.625008,22.1014972 23.574208,22.1014972 L23.574208,22.1015972 Z M71.023208,22.1015972 C72.968508,22.1015972 74.507608,20.5429972 74.507608,18.5742972 L74.507608,3.8362972 C74.507608,1.8635972 72.968508,0.3089972 71.023208,0.3089972 C69.074008,0.3089972 67.538808,1.8675972 67.538808,3.8362972 L67.538808,18.5702972 C67.640368,20.5429972 69.179408,22.1014972 71.023208,22.1014972 L71.023208,22.1015972 Z M70.238048,75.9335972 L70.238048,89.5745972 L83.265048,89.5745972 L83.261138,75.9335972 L70.238048,75.9335972 Z M31.172048,39.0815972 L31.172048,52.7225972 L44.195048,52.7225972 L44.198958,39.0815972 L31.172048,39.0815972 Z M50.801048,39.0815972 L50.801048,52.7225972 L63.824048,52.7225972 L63.827958,39.0815972 L50.801048,39.0815972 Z M70.239048,39.0815972 L70.239048,52.7225972 L83.266048,52.7225972 L83.262138,39.0815972 L70.239048,39.0815972 Z M11.630048,57.4055972 L11.630048,71.0465972 L24.653048,71.0465972 L24.656948,57.4055972 L11.630048,57.4055972 Z M31.118048,57.4055972 L31.118048,71.0465972 L44.141048,71.0465972 L44.144948,57.4055972 L31.118048,57.4055972 Z M50.751048,57.4055972 L50.751048,71.0465972 L63.774048,71.0465972 L63.774048,57.4055972 L50.751048,57.4055972 Z M70.185048,57.4055972 L70.185048,71.0465972 L83.208048,71.0465972 L83.211948,57.4055972 L70.185048,57.4055972 Z M11.630048,75.9325972 L11.630048,89.5735972 L24.653048,89.5735972 L24.656948,75.9325972 L11.630048,75.9325972 Z M31.118048,75.9325972 L31.118048,89.5735972 L44.141048,89.5735972 L44.144948,75.9325972 L31.118048,75.9325972 Z M50.751048,75.9325972 L50.751048,89.5735972 L63.774048,89.5735972 L63.774048,75.9325972 L50.751048,75.9325972 Z" id="calendar" fill="#000000"></path>
    </g>
</svg>