<?xml version="1.0" encoding="UTF-8"?>
<svg width="101px" height="100px" viewBox="0 0 101 100" version="1.1" xmlns="http://www.w3.org/2000/svg" xmlns:xlink="http://www.w3.org/1999/xlink">
    <!-- Generator: Sketch 46.2 (44496) - http://www.bohemiancoding.com/sketch -->
    <title>Page 1</title>
    <desc>Created with Sketch.</desc>
    <defs></defs>
    <g id="Page-1" stroke="none" stroke-width="1" fill="none" fill-rule="evenodd">
        <g transform="translate(0.000000, -1.000000)" fill="#005EA3">
            <path d="M42.41,84.172 C31.367,84.21887 20.762,79.8751 12.926,72.094 C5.090101,64.3128 0.6720009,53.739 0.6410007,42.696 C0.6097507,31.657 4.969101,21.055 12.762,13.231 C20.5511,5.4107 31.137,1.004 42.176,0.993 C53.219,0.9774 63.813,5.3524 71.621,13.157 C79.4335,20.9617 83.824,31.548 83.82,42.591 C83.83172,53.591 79.4762,64.15 71.715,71.943 C63.9494,79.73989 53.41,84.13799 42.41,84.17299 L42.41,84.172 Z M42.41,13.12099 C34.5858,13.06631 27.062,16.12879 21.5,21.62879 C15.9336,27.12879 12.7852,34.61679 12.75,42.44079 C12.71484,50.265 15.793,57.78479 21.3047,63.3358 C26.8164,68.8866 34.3127,72.0194 42.1367,72.0389 C49.9609,72.05843 57.4727,68.9647 63.0117,63.4412 C68.5508,57.9139 71.6679,50.4142 71.6719,42.5892 C71.68753,34.804 68.6172,27.3272 63.1328,21.8042 C57.6484,16.2808 50.1948,13.1558 42.4098,13.1206 L42.41,13.12099 Z" id="Fill-1"></path>
            <polygon id="Fill-2" points="67.551 71.027 71.0354 67.5426 86.5194 83.0266 83.035 86.511"></polygon>
            <path d="M70.5,75.348 L75.3516,70.4964 C76.7149,69.1331 79.1836,69.3909 80.2891,70.4964 L99.9881,90.1954 C101.3514,91.558699 101.3514,93.769599 99.9881,95.132899 L95.1365,99.984499 C93.7732,101.347799 91.3045,101.089999 90.199,99.984499 L70.5,80.2855 C69.1367,78.9222 69.1367,76.7113 70.5,75.348 Z" id="Fill-3"></path>
        </g>
    </g>
</svg>